<?xml version="1.0"?>
<svg xmlns="http://www.w3.org/2000/svg" xmlns:xlink="http://www.w3.org/1999/xlink" xmlns:svgjs="http://svgjs.com/svgjs" version="1.1" width="512" height="512" x="0" y="0" viewBox="0 0 512.002 512" style="enable-background:new 0 0 512 512" xml:space="preserve" class=""><g><path xmlns="http://www.w3.org/2000/svg" d="m422.257812 0h-331.441406c-50.078125 0-90.816406 40.648438-90.816406 90.613281v338.878907c0 12 7.28125 22.960937 18.558594 27.921874 3.988281 1.753907 8.207031 2.605469 12.398437 2.605469 7.5 0 14.898438-2.734375 20.628907-7.949219 41.546874-37.59375 95.316406-58.292968 151.421874-58.292968h.011719l219.296875.015625c49.453125 0 89.6875-40.320313 89.6875-89.882813v-214.367187c-.003906-49.375-40.261718-89.542969-89.746094-89.542969zm59.742188 303.910156c0 33.019532-26.773438 59.878906-59.683594 59.878906l-219.296875-.015624h-.015625c-63.550781 0-124.480468 23.460937-171.582031 66.078124-.144531.132813-.554687.199219-.785156.101563-.335938-.148437-.566407-.421875-.636719-.5625v-338.777344c0-33.421875 27.28125-60.609375 60.8125-60.609375h331.441406c32.941406 0 59.742188 26.707032 59.742188 59.539063v214.367187zm0 0" fill="#ffffff" data-original="#000000" style=""/><path xmlns="http://www.w3.org/2000/svg" d="m127.800781 138.992188h48.4375c8.285157 0 15-6.714844 15-15 0-8.28125-6.714843-15-15-15h-48.4375c-21.050781 0-38.171875 17.125-38.171875 38.171874v121.691407c0 8.285156 6.714844 15 15 15 8.28125 0 15-6.714844 15-15v-36.609375h56.609375c8.285157 0 15-6.714844 15-15s-6.714843-15-15-15h-56.609375v-55.082032c0-4.503906 3.664063-8.171874 8.171875-8.171874zm0 0" fill="#ffffff" data-original="#000000" style=""/><path xmlns="http://www.w3.org/2000/svg" d="m256.183594 108.992188c-28.011719 0-50.804688 22.792968-50.804688 50.808593v109.058594c0 8.28125 6.714844 15 15 15s15-6.71875 15-15v-37.433594h41.609375v37.433594c0 8.28125 6.71875 15 15 15 8.285157 0 15-6.71875 15-15v-109.058594c0-28.015625-22.789062-50.808593-50.804687-50.808593zm-20.804688 92.433593v-41.625c0-11.472656 9.332032-20.808593 20.804688-20.808593s20.808594 9.335937 20.808594 20.808593v41.625zm0 0" fill="#ffffff" data-original="#000000" style=""/><path xmlns="http://www.w3.org/2000/svg" d="m440.121094 253.859375h-11.882813v-94.058594c0-28.015625-22.789062-50.808593-50.804687-50.808593s-50.808594 22.792968-50.808594 50.808593v73.25c0 28.015625 22.792969 50.808594 50.808594 50.808594h62.6875c8.28125 0 15-6.71875 15-15 0-8.285156-6.71875-15-15-15zm-83.492188-20.808594v-73.25c0-11.472656 9.332032-20.808593 20.804688-20.808593s20.804687 9.335937 20.804687 20.808593v94.058594h-20.804687c-11.472656 0-20.804688-9.335937-20.804688-20.808594zm0 0" fill="#ffffff" data-original="#000000" style=""/></g></svg>
